<svg xmlns="http://www.w3.org/2000/svg" xmlns:xlink="http://www.w3.org/1999/xlink" preserveAspectRatio="xMidYMid" width="627.938" height="80.375" viewBox="0 0 627.938 80.375">
  <defs>
    <style>
      .cls-1 {
        stroke: #000;
        stroke-width: 1px;
        fill: none;
        fill-rule: evenodd;
      }
    </style>
  </defs>
  <path d="M627.133,75.026 C627.545,76.126 627.545,77.123 627.133,78.016 C626.720,78.771 626.102,79.321 625.277,79.665 C624.383,79.939 623.524,79.939 622.700,79.665 C621.875,79.321 621.290,78.702 620.947,77.810 C620.053,75.611 619.468,72.552 619.194,68.634 C619.056,66.160 618.988,62.381 618.988,57.294 L619.091,52.964 C619.091,50.216 617.957,47.948 615.689,46.160 C613.695,44.579 611.633,43.788 609.503,43.788 L588.575,43.788 L588.575,76.366 C588.575,77.466 588.231,78.325 587.544,78.944 C586.926,79.562 586.204,79.871 585.379,79.871 C584.485,79.871 583.730,79.562 583.111,78.944 C582.493,78.325 582.183,77.466 582.183,76.366 L582.183,12.860 C582.183,9.149 583.042,6.468 584.761,4.819 C586.547,3.101 589.571,2.241 593.833,2.241 L604.349,2.241 C609.984,2.241 614.692,3.617 618.473,6.365 C623.352,9.940 625.792,15.334 625.792,22.551 C625.792,27.499 624.932,31.417 623.215,34.304 C621.772,36.778 619.401,38.840 616.102,40.489 C618.643,40.971 620.741,42.208 622.390,44.201 C624.452,46.744 625.483,50.319 625.483,54.923 C625.414,59.734 625.483,63.342 625.689,65.747 C625.896,69.871 626.376,72.964 627.133,75.026 ZM619.504,23.066 C619.504,19.081 618.334,15.610 615.998,12.654 C613.592,9.493 610.602,7.911 607.029,7.911 L593.524,7.911 C591.668,7.911 590.362,8.256 589.606,8.942 C588.918,9.561 588.575,10.661 588.575,12.241 L588.575,38.118 L607.029,38.118 C610.602,38.118 613.592,36.538 615.998,33.376 C618.334,30.422 619.504,26.984 619.504,23.066 ZM538.059,71.112 C538.745,71.865 539.742,72.242 541.049,72.242 L570.224,72.242 C571.255,72.242 572.114,72.518 572.802,73.067 C573.351,73.618 573.627,74.270 573.627,75.026 C573.627,75.783 573.351,76.435 572.802,76.985 C572.114,77.603 571.255,77.913 570.224,77.913 L540.739,77.913 C536.959,77.913 534.312,77.123 532.801,75.545 C531.289,74.105 530.533,71.598 530.533,68.028 L530.533,13.875 C530.533,9.758 531.461,6.771 533.317,4.919 C535.103,3.134 538.024,2.241 542.080,2.241 L570.224,2.241 C571.186,2.241 571.977,2.517 572.596,3.066 C573.145,3.617 573.420,4.269 573.420,5.025 C573.420,5.782 573.145,6.434 572.596,6.984 C572.045,7.602 571.255,7.911 570.224,7.911 L541.358,7.911 C539.915,7.911 538.781,8.324 537.956,9.149 C537.268,9.906 536.925,10.937 536.925,12.241 L536.925,35.953 L568.472,35.953 C569.364,35.953 570.121,36.229 570.740,36.778 C571.220,37.329 571.495,37.981 571.565,38.737 C571.565,39.494 571.289,40.146 570.740,40.696 C570.189,41.314 569.434,41.623 568.472,41.623 L536.925,41.623 L536.925,67.927 C536.925,69.367 537.302,70.429 538.059,71.112 ZM520.121,7.911 L502.079,7.911 L502.079,76.676 C502.079,77.639 501.734,78.428 501.048,79.047 C500.430,79.596 499.708,79.871 498.883,79.871 C497.989,79.871 497.234,79.596 496.615,79.047 C495.996,78.428 495.687,77.639 495.687,76.676 L495.687,7.911 L477.027,7.911 C475.445,7.911 474.620,6.950 474.553,5.025 C474.484,3.169 475.308,2.241 477.027,2.241 L520.121,2.241 C521.013,2.241 521.804,2.517 522.492,3.066 C523.041,3.617 523.350,4.269 523.420,5.025 C523.487,5.782 523.247,6.434 522.698,6.984 C522.079,7.602 521.219,7.911 520.121,7.911 ZM447.130,36.262 C455.583,39.974 461.047,42.930 463.522,45.129 C467.233,48.360 469.089,52.999 469.089,59.046 C469.089,65.232 466.615,70.353 461.666,74.407 C457.336,77.982 452.491,79.768 447.130,79.768 C440.119,79.768 434.620,78.119 430.635,74.820 C426.098,71.178 423.486,65.611 422.799,58.118 C422.661,57.020 422.902,56.126 423.521,55.438 C424.070,54.819 424.758,54.443 425.583,54.304 C426.408,54.236 427.129,54.443 427.748,54.923 C428.434,55.541 428.846,56.435 428.985,57.603 C429.534,63.309 431.493,67.569 434.861,70.387 C437.816,72.861 441.836,74.098 446.923,74.098 C450.359,74.098 453.658,72.964 456.821,70.696 C460.738,67.948 462.697,64.270 462.697,59.665 C462.697,55.267 461.391,51.830 458.779,49.355 C456.854,47.569 452.558,45.095 445.893,41.933 L444.862,41.417 C437.782,38.118 433.073,35.404 430.738,33.273 C427.094,29.906 425.274,25.404 425.274,19.767 C425.274,13.582 427.266,8.772 431.253,5.334 C435.032,2.104 439.947,0.489 445.996,0.489 L447.233,0.489 C453.074,0.489 457.955,2.414 461.872,6.262 C465.308,9.630 467.233,13.582 467.645,18.118 C467.713,19.287 467.439,20.249 466.821,21.004 C466.270,21.692 465.514,22.105 464.553,22.242 C463.659,22.311 462.868,22.105 462.181,21.623 C461.424,21.143 461.012,20.421 460.944,19.458 C460.600,15.334 458.986,12.035 456.099,9.561 C453.349,7.293 450.084,6.159 446.305,6.159 C442.455,6.159 439.088,7.190 436.202,9.252 C433.176,11.520 431.665,14.406 431.665,17.912 C431.665,22.723 432.627,26.262 434.552,28.530 C436.475,30.798 440.669,33.376 447.130,36.262 ZM393.314,79.768 C386.304,79.768 380.840,77.536 376.922,73.067 C373.348,69.082 371.561,64.098 371.561,58.118 L371.561,3.891 C371.561,2.860 371.871,2.035 372.489,1.417 C373.108,0.867 373.863,0.592 374.757,0.592 C375.582,0.592 376.304,0.833 376.922,1.313 C377.609,1.932 377.953,2.792 377.953,3.891 L377.953,58.325 C377.953,63.067 379.397,66.882 382.283,69.768 C385.170,72.655 388.881,74.098 393.417,74.098 C397.884,74.098 401.562,72.552 404.449,69.459 C407.403,66.366 408.882,62.345 408.882,57.397 L408.882,3.272 C408.882,2.380 409.191,1.658 409.809,1.107 C410.428,0.695 411.184,0.489 412.078,0.489 C412.902,0.489 413.624,0.764 414.243,1.313 C414.929,1.795 415.273,2.517 415.273,3.478 L415.273,57.912 C415.273,63.824 413.245,68.876 409.191,73.067 C404.998,77.536 399.706,79.768 393.314,79.768 ZM359.809,77.913 L327.746,77.913 C325.340,77.913 323.519,77.159 322.282,75.648 C320.976,74.138 320.323,71.907 320.323,68.955 L320.323,4.195 C320.323,3.029 320.633,2.101 321.251,1.415 C321.870,0.798 322.625,0.489 323.519,0.489 C324.344,0.489 325.066,0.798 325.684,1.415 C326.371,2.101 326.715,3.029 326.715,4.195 L326.715,68.845 C326.715,70.150 326.921,71.042 327.334,71.522 C327.814,72.002 328.708,72.242 330.014,72.242 L359.706,72.242 C360.736,72.242 361.561,72.518 362.180,73.067 C362.729,73.618 363.038,74.270 363.108,75.026 C363.108,75.783 362.832,76.435 362.283,76.985 C361.664,77.603 360.840,77.913 359.809,77.913 ZM289.395,74.098 C293.862,74.098 297.367,72.449 299.911,69.150 C302.591,65.783 303.999,61.041 304.138,54.923 C304.138,53.824 304.481,52.964 305.169,52.345 C305.855,51.796 306.646,51.520 307.540,51.520 C308.432,51.590 309.154,51.933 309.705,52.551 C310.391,53.308 310.736,54.304 310.736,55.541 C310.185,64.340 307.849,70.696 303.725,74.614 C300.151,78.050 295.099,79.768 288.570,79.768 C281.903,79.768 276.508,76.676 272.384,70.490 C267.642,63.412 265.271,53.033 265.271,39.355 C265.271,27.259 267.607,17.672 272.281,10.592 C276.748,3.857 282.591,0.489 289.807,0.489 C296.267,0.489 301.285,2.483 304.859,6.468 C307.814,9.836 309.635,14.510 310.323,20.489 C310.460,22.208 309.429,23.239 307.230,23.582 C304.962,23.927 303.759,23.169 303.622,21.314 C303.071,16.571 301.491,12.792 298.880,9.973 C296.473,7.431 293.690,6.159 290.529,6.159 C285.236,6.159 280.872,8.736 277.436,13.891 C273.586,19.870 271.663,28.324 271.663,39.252 C271.663,49.494 273.209,57.809 276.302,64.201 C279.532,70.799 283.896,74.098 289.395,74.098 ZM203.002,79.665 C202.108,79.939 201.249,79.939 200.425,79.665 C199.600,79.321 199.015,78.702 198.672,77.810 C197.778,75.611 197.193,72.552 196.919,68.634 C196.781,66.160 196.713,62.381 196.713,57.294 L196.816,52.964 C196.816,50.216 195.682,47.948 193.414,46.160 C191.420,44.579 189.358,43.788 187.228,43.788 L166.300,43.788 L166.300,76.366 C166.300,77.466 165.956,78.325 165.269,78.944 C164.651,79.562 163.929,79.871 163.104,79.871 C162.210,79.871 161.455,79.562 160.836,78.944 C160.218,78.325 159.908,77.466 159.908,76.366 L159.908,12.860 C159.908,9.149 160.767,6.468 162.486,4.819 C164.272,3.101 167.296,2.241 171.558,2.241 L182.074,2.241 C187.708,2.241 192.417,3.617 196.198,6.365 C201.077,9.940 203.517,15.334 203.517,22.551 C203.517,27.499 202.657,31.417 200.940,34.304 C199.497,36.778 197.126,38.840 193.826,40.489 C196.368,40.971 198.466,42.208 200.115,44.201 C202.177,46.744 203.208,50.319 203.208,54.923 C203.139,59.734 203.208,63.342 203.414,65.747 C203.620,69.871 204.100,72.964 204.858,75.026 C205.270,76.126 205.270,77.123 204.858,78.016 C204.445,78.771 203.827,79.321 203.002,79.665 ZM197.229,23.066 C197.229,19.081 196.059,15.610 193.723,12.654 C191.317,9.493 188.327,7.911 184.754,7.911 L171.249,7.911 C169.393,7.911 168.087,8.256 167.331,8.942 C166.643,9.561 166.300,10.661 166.300,12.241 L166.300,38.118 L184.754,38.118 C188.327,38.118 191.317,36.538 193.723,33.376 C196.059,30.422 197.229,26.984 197.229,23.066 ZM152.073,79.768 C151.248,79.975 150.491,79.905 149.805,79.562 C148.980,79.150 148.499,78.496 148.362,77.603 L141.764,53.479 L117.227,53.479 L110.629,77.294 C110.285,78.186 109.701,78.874 108.877,79.356 C108.052,79.836 107.261,79.975 106.505,79.768 C105.611,79.562 104.993,79.081 104.650,78.325 C104.237,77.500 104.305,76.469 104.856,75.232 L124.341,4.819 C125.302,1.932 127.055,0.489 129.599,0.489 C132.073,0.558 133.859,2.001 134.960,4.819 L154.341,75.954 C154.615,76.917 154.512,77.742 154.032,78.428 C153.550,79.114 152.898,79.562 152.073,79.768 ZM129.599,8.736 L118.774,47.809 L140.320,47.809 L129.599,8.736 ZM97.846,7.911 L79.804,7.911 L79.804,76.676 C79.804,77.639 79.459,78.428 78.773,79.047 C78.154,79.596 77.433,79.871 76.608,79.871 C75.714,79.871 74.959,79.596 74.340,79.047 C73.721,78.428 73.412,77.639 73.412,76.676 L73.412,7.911 L54.752,7.911 C53.170,7.911 52.345,6.950 52.278,5.025 C52.208,3.169 53.033,2.241 54.752,2.241 L97.846,2.241 C98.738,2.241 99.529,2.517 100.217,3.066 C100.766,3.617 101.075,4.269 101.145,5.025 C101.212,5.782 100.972,6.434 100.423,6.984 C99.804,7.602 98.944,7.911 97.846,7.911 ZM24.855,36.262 C33.308,39.974 38.772,42.930 41.247,45.129 C44.958,48.360 46.814,52.999 46.814,59.046 C46.814,65.232 44.339,70.353 39.391,74.407 C35.061,77.982 30.216,79.768 24.855,79.768 C17.844,79.768 12.345,78.119 8.359,74.820 C3.823,71.178 1.211,65.611 0.524,58.118 C0.386,57.020 0.627,56.126 1.246,55.438 C1.795,54.819 2.483,54.443 3.308,54.304 C4.133,54.236 4.854,54.443 5.473,54.923 C6.159,55.541 6.571,56.435 6.710,57.603 C7.259,63.309 9.218,67.569 12.586,70.387 C15.541,72.861 19.561,74.098 24.648,74.098 C28.084,74.098 31.383,72.964 34.545,70.696 C38.463,67.948 40.422,64.270 40.422,59.665 C40.422,55.267 39.115,51.830 36.504,49.355 C34.579,47.569 30.283,45.095 23.617,41.933 L22.587,41.417 C15.507,38.118 10.798,35.404 8.463,33.273 C4.819,29.906 2.999,25.404 2.999,19.767 C2.999,13.582 4.991,8.772 8.978,5.334 C12.757,2.104 17.672,0.489 23.721,0.489 L24.958,0.489 C30.799,0.489 35.680,2.414 39.597,6.262 C43.033,9.630 44.958,13.582 45.370,18.118 C45.438,19.287 45.164,20.249 44.546,21.004 C43.995,21.692 43.239,22.105 42.278,22.242 C41.384,22.311 40.593,22.105 39.906,21.623 C39.149,21.143 38.737,20.421 38.669,19.458 C38.325,15.334 36.710,12.035 33.824,9.561 C31.074,7.293 27.809,6.159 24.030,6.159 C20.180,6.159 16.813,7.190 13.927,9.252 C10.901,11.520 9.390,14.406 9.390,17.912 C9.390,22.723 10.352,26.262 12.277,28.530 C14.200,30.798 18.393,33.376 24.855,36.262 Z" class="cls-1"/>
</svg>
