<?xml version="1.0" encoding="UTF-8"?>
<!DOCTYPE svg PUBLIC "-//W3C//DTD SVG 1.1//EN" "http://www.w3.org/Graphics/SVG/1.1/DTD/svg11.dtd">
<!-- Creator: CorelDRAW -->
<svg xmlns="http://www.w3.org/2000/svg" xml:space="preserve" width="157.708mm" height="24.8337mm" style="shape-rendering:geometricPrecision; text-rendering:geometricPrecision; image-rendering:optimizeQuality; fill-rule:evenodd; clip-rule:evenodd"
viewBox="0 0 161.308 25.4006"
 xmlns:xlink="http://www.w3.org/1999/xlink">
 <defs>
  <style type="text/css">
   <![CDATA[
    .str0 {stroke:white;stroke-width:1.02283}
    .fil0 {fill:none;fill-rule:nonzero}
   ]]>
  </style>
 </defs>
 <g id="Layer_x0020_1">
  <metadata id="CorelCorpID_0Corel-Layer"/>
  <path class="fil0 str0" d="M8.97032 0.511415c-2.46911,0 -4.4088,0.507835 -5.8243,1.51819 -1.39401,1.03735 -2.09097,2.46911 -2.09097,4.30611 0,1.89633 0.686216,3.37677 2.05855,4.43028 1.16163,0.864495 3.03637,1.60472 5.63518,2.21524 2.70139,0.610527 4.50597,1.36149 5.41363,2.24757 0.761803,0.740222 1.14005,1.89101 1.14005,3.45246 0,1.43176 -0.72938,2.56096 -2.18272,3.38761 -1.20489,0.696956 -2.56638,1.04277 -4.08457,1.04277 -2.02612,0 -3.55515,-0.399824 -4.5925,-1.20489 -1.16163,-0.864495 -1.81532,-2.24757 -1.96128,-4.14399 -0.0431634,-0.361979 -0.167437,-0.632109 -0.37814,-0.826651 -0.189121,-0.167539 -0.421406,-0.243127 -0.696956,-0.221545 -0.253969,0.021684 -0.464671,0.118853 -0.632211,0.286392 -0.210703,0.210703 -0.297132,0.486253 -0.253866,0.82123 0.210703,2.45295 1.0752,4.25742 2.59338,5.41363 1.39391,1.09678 3.38761,1.64788 5.98631,1.64788 2.29625,0 4.20884,-0.56184 5.72713,-1.6803 1.64788,-1.17779 2.46911,-2.76082 2.46911,-4.74368 0,-2.02612 -0.599787,-3.59289 -1.80458,-4.68967 -1.24806,-1.14005 -3.37677,-2.01528 -6.39698,-2.62581 -2.30167,-0.464671 -3.89555,-1.0752 -4.78162,-1.837 -0.842811,-0.713117 -1.26422,-1.72889 -1.26422,-3.03637 0,-1.30748 0.540258,-2.31241 1.61546,-3.00405 1.01035,-0.65369 2.40426,-0.983348 4.18184,-0.983348 1.64246,0 2.92294,0.334977 3.8306,1.01035 0.907659,0.696956 1.48576,1.79916 1.73973,3.29576 0.0432657,0.334977 0.178279,0.588945 0.410666,0.756382 0.232285,0.17296 0.486253,0.243229 0.761803,0.226966 0.291711,-0.0432657 0.518677,-0.1837 0.664532,-0.415985 0.189121,-0.253969 0.253969,-0.578103 0.189121,-0.977927 -0.253969,-1.56145 -0.864495,-2.82035 -1.837,-3.77127 -1.30748,-1.26422 -3.18775,-1.89633 -5.63518,-1.89633zm27.8247 0.534837l-11.5513 0c-0.967187,0 -1.72899,0.318816 -2.27467,0.950924 -0.486253,0.567261 -0.72938,1.27506 -0.72938,2.11787l0 17.192c0,0.826651 0.243127,1.52361 0.72938,2.09087 0.545679,0.632109 1.30748,0.950924 2.27467,0.950924l11.9673 0c0.313395,0 0.567363,-0.0972711 0.756485,-0.286392 0.167437,-0.167437 0.253866,-0.3674 0.253866,-0.599685 0,-0.253969 -0.0864291,-0.464671 -0.253866,-0.632109 -0.189121,-0.167539 -0.44309,-0.253969 -0.756485,-0.253969l-11.6162 0c-0.464671,0 -0.826651,-0.145855 -1.0752,-0.442987 -0.210703,-0.253969 -0.318714,-0.572784 -0.318714,-0.950924l0 -8.01254 11.4919 0c0.313395,0 0.567363,-0.0971688 0.756382,-0.28629 0.167539,-0.167539 0.253969,-0.3674 0.253969,-0.599685 0,-0.253969 -0.0864291,-0.464671 -0.253969,-0.632211 -0.189019,-0.167437 -0.442987,-0.253866 -0.756382,-0.253866l-11.4919 0 0 -7.15346c0,-0.405245 0.108011,-0.72938 0.318714,-0.983348 0.248548,-0.297132 0.610527,-0.442987 1.0752,-0.442987l11.2002 0c0.297132,0 0.540258,-0.0972711 0.72938,-0.286392 0.167539,-0.167437 0.253969,-0.3674 0.253969,-0.599685 0,-0.253969 -0.0864291,-0.464671 -0.253969,-0.632109 -0.189121,-0.167539 -0.432248,-0.253969 -0.72938,-0.253969zm8.71492 0c-0.972608,0 -1.73441,0.318816 -2.28009,0.950924 -0.486253,0.567261 -0.72938,1.27506 -0.72938,2.11787l0 19.6936c0,0.334977 0.0972711,0.599685 0.286392,0.788806 0.189121,0.189121 0.421406,0.28629 0.696956,0.28629 0.248548,0 0.470092,-0.0971688 0.659111,-0.28629 0.210703,-0.189121 0.318816,-0.453829 0.318816,-0.788806l0 -10.0061 8.19614 0c1.01577,0 1.86943,0.243127 2.56638,0.72938 0.761803,0.507835 1.14005,1.20479 1.14005,2.09087 0,1.58303 0.0648474,2.99863 0.189019,4.24126 0.167539,1.4156 0.410666,2.5448 0.729482,3.38761 0.10259,0.27555 0.291711,0.464671 0.567261,0.572682 0.253969,0.0865314 0.507835,0.0865314 0.761803,0 0.270129,-0.108011 0.475411,-0.27555 0.599685,-0.507835 0.124274,-0.27555 0.124274,-0.578103 0,-0.918501 -0.27555,-0.756382 -0.486253,-1.68573 -0.632109,-2.7825 -0.145855,-1.20479 -0.221545,-2.63113 -0.221545,-4.27901 0,-1.03193 -0.329556,-1.864 -0.983246,-2.49611 -0.545782,-0.5511 -1.17789,-0.859074 -1.89643,-0.918501 1.13994,-0.405245 2.0477,-1.09146 2.72298,-2.05855 0.675374,-0.994088 1.01035,-2.13413 1.01035,-3.42003 0,-1.71273 -0.5511,-3.17691 -1.64788,-4.40328 -1.22105,-1.32917 -2.85809,-1.9937 -4.9058,-1.9937l-7.14794 0zm6.9264 11.0165l-7.97459 0 0 -7.818c0,-0.405245 0.108011,-0.72938 0.318714,-0.983348 0.248548,-0.297132 0.610527,-0.442987 1.0752,-0.442987l6.58068 0c1.48044,0 2.66907,0.486253 3.57673,1.45876 0.805069,0.886077 1.20489,1.93969 1.20489,3.16064 0,1.20489 -0.399824,2.25309 -1.20489,3.13917 -0.907659,0.988667 -2.09629,1.48576 -3.57673,1.48576zm19.7854 -10.5087l0 16.8084c0,1.45876 -0.356661,2.5988 -1.0752,3.42003 -0.761803,0.886077 -1.837,1.32917 -3.23091,1.32917 -1.39391,0 -2.47995,-0.44309 -3.26334,-1.32917 -0.696956,-0.799648 -1.04277,-1.84774 -1.04277,-3.13364 0,-0.297132 -0.108011,-0.518677 -0.318816,-0.664532 -0.189019,-0.145958 -0.410564,-0.210703 -0.659111,-0.189121 -0.27555,0 -0.507835,0.0864291 -0.696956,0.253969 -0.189121,0.189019 -0.286392,0.453829 -0.286392,0.788806 0,1.6262 0.507937,2.99853 1.51829,4.11699 1.16152,1.2858 2.74466,1.92875 4.7491,1.92875 2.00444,0 3.57673,-0.65369 4.71668,-1.96117 1.05362,-1.16163 1.58303,-2.60965 1.58303,-4.33854l0 -17.0299c0,-0.334977 -0.108011,-0.599685 -0.318714,-0.788806 -0.189121,-0.167437 -0.421406,-0.253866 -0.691637,-0.253866 -0.27555,0 -0.507835,0.0864291 -0.696956,0.253866 -0.189121,0.189121 -0.28629,0.453829 -0.28629,0.788806zm21.8817 -0.507835c-0.972608,0 -1.73441,0.318816 -2.28009,0.950924 -0.486253,0.567261 -0.72938,1.27506 -0.72938,2.11787l0 19.6936c0,0.334977 0.0972711,0.599685 0.286392,0.788806 0.189121,0.189121 0.421406,0.28629 0.696956,0.28629 0.248548,0 0.470092,-0.0971688 0.659111,-0.28629 0.210703,-0.189121 0.318816,-0.453829 0.318816,-0.788806l0 -10.0061 8.19614 0c1.01577,0 1.86943,0.243127 2.56638,0.72938 0.761803,0.507835 1.14005,1.20479 1.14005,2.09087 0,1.58303 0.0648474,2.99863 0.189019,4.24126 0.167539,1.4156 0.410666,2.5448 0.729482,3.38761 0.10259,0.27555 0.291711,0.464671 0.567261,0.572682 0.253969,0.0865314 0.507835,0.0865314 0.761803,0 0.270129,-0.108011 0.475411,-0.27555 0.599685,-0.507835 0.124274,-0.27555 0.124274,-0.578103 0,-0.918501 -0.27555,-0.756382 -0.486253,-1.68573 -0.632109,-2.7825 -0.145855,-1.20479 -0.221545,-2.63113 -0.221545,-4.27901 0,-1.03193 -0.329556,-1.864 -0.983246,-2.49611 -0.545782,-0.5511 -1.17789,-0.859074 -1.89643,-0.918501 1.13994,-0.405245 2.0477,-1.09146 2.72298,-2.05855 0.675374,-0.994088 1.01035,-2.13413 1.01035,-3.42003 0,-1.71273 -0.5511,-3.17691 -1.64788,-4.40328 -1.22105,-1.32917 -2.85809,-1.9937 -4.9058,-1.9937l-7.14794 0zm6.9264 11.0165l-7.97459 0 0 -7.818c0,-0.405245 0.108011,-0.72938 0.318714,-0.983348 0.248548,-0.297132 0.610527,-0.442987 1.0752,-0.442987l6.58068 0c1.48044,0 2.66907,0.486253 3.57673,1.45876 0.805069,0.886077 1.20489,1.93969 1.20489,3.16064 0,1.20489 -0.399824,2.25309 -1.20489,3.13917 -0.907659,0.988667 -2.09629,1.48576 -3.57673,1.48576zm12.0323 -10.5087l0 22.3194c0,0.313293 0.0972711,0.567261 0.28629,0.756382 0.189121,0.167437 0.421508,0.253866 0.697058,0.253866 0.248445,0 0.46999,-0.0864291 0.659111,-0.253866 0.210703,-0.189121 0.318816,-0.44309 0.318816,-0.756382l0 -22.3194c0,-0.334977 -0.108113,-0.599685 -0.318816,-0.788806 -0.189121,-0.167437 -0.410666,-0.253866 -0.659111,-0.253866 -0.27555,0 -0.507937,0.0864291 -0.697058,0.253866 -0.189019,0.189121 -0.28629,0.453829 -0.28629,0.788806zm11.3677 -0.507835c-0.972608,0 -1.73441,0.318816 -2.28009,0.950924 -0.486253,0.567261 -0.72938,1.27506 -0.72938,2.11787l0 17.192c0,0.826651 0.243127,1.52361 0.72938,2.09087 0.545679,0.632109 1.30748,0.950924 2.28009,0.950924l4.52213 0c3.4633,0 6.17554,-1.16163 8.13671,-3.48488 1.837,-2.12871 2.7555,-4.85179 2.7555,-8.16913 0,-3.31192 -0.918501,-6.035 -2.7555,-8.16371 -1.96117,-2.32325 -4.67341,-3.48488 -8.13671,-3.48488l-4.52213 0zm0.345716 21.5305c-0.464671,0 -0.826651,-0.145855 -1.0752,-0.442987 -0.210703,-0.253969 -0.318714,-0.572784 -0.318714,-0.950924l0 -16.9381c0,-0.405245 0.108011,-0.72938 0.318714,-0.983348 0.248548,-0.297132 0.610527,-0.442987 1.0752,-0.442987l4.17642 0c2.83109,0 5.04633,0.972506 6.65095,2.9121 1.4966,1.79384 2.24757,4.11699 2.24757,6.96434 0,2.83109 -0.750961,5.1435 -2.24757,6.93734 -1.60461,1.96117 -3.81986,2.94452 -6.65095,2.94452l-4.17642 0zm34.5946 -21.5305l-11.5513 0c-0.967187,0 -1.72899,0.318816 -2.27467,0.950924 -0.486253,0.567261 -0.72938,1.27506 -0.72938,2.11787l0 17.192c0,0.826651 0.243127,1.52361 0.72938,2.09087 0.545679,0.632109 1.30748,0.950924 2.27467,0.950924l11.9673 0c0.313395,0 0.567363,-0.0972711 0.756485,-0.286392 0.167437,-0.167437 0.253866,-0.3674 0.253866,-0.599685 0,-0.253969 -0.0864291,-0.464671 -0.253866,-0.632109 -0.189121,-0.167539 -0.44309,-0.253969 -0.756485,-0.253969l-11.6162 0c-0.464671,0 -0.826651,-0.145855 -1.0752,-0.442987 -0.210703,-0.253969 -0.318714,-0.572784 -0.318714,-0.950924l0 -8.01254 11.4919 0c0.313395,0 0.567363,-0.0971688 0.756382,-0.28629 0.167539,-0.167539 0.253969,-0.3674 0.253969,-0.599685 0,-0.253969 -0.0864291,-0.464671 -0.253969,-0.632211 -0.189019,-0.167437 -0.442987,-0.253866 -0.756382,-0.253866l-11.4919 0 0 -7.15346c0,-0.405245 0.108011,-0.72938 0.318714,-0.983348 0.248548,-0.297132 0.610527,-0.442987 1.0752,-0.442987l11.2002 0c0.297132,0 0.540258,-0.0972711 0.72938,-0.286392 0.167539,-0.167437 0.253969,-0.3674 0.253969,-0.599685 0,-0.253969 -0.0864291,-0.464671 -0.253969,-0.632109 -0.189121,-0.167539 -0.432248,-0.253969 -0.72938,-0.253969z"/>
 </g>
</svg>
